<mxfile host="app.diagrams.net" modified="2021-08-30T05:20:48.453Z" agent="5.0 (X11; Linux x86_64) AppleWebKit/537.36 (KHTML, like Gecko) Chrome/92.0.4515.159 Safari/537.36" etag="7hKsPkGAIOfXS_6HeFQl" version="15.0.3" type="github">
  <diagram id="kgpKYQtTHZ0yAKxKKP6v" name="Page-1">
    <mxGraphModel dx="1422" dy="801" grid="1" gridSize="10" guides="1" tooltips="1" connect="1" arrows="1" fold="1" page="1" pageScale="1" pageWidth="850" pageHeight="1100" math="0" shadow="0">
      <root>
        <mxCell id="0" />
        <mxCell id="1" parent="0" />
        <mxCell id="3nuBFxr9cyL0pnOWT2aG-1" value="Producer" style="shape=umlLifeline;perimeter=lifelinePerimeter;container=1;collapsible=0;recursiveResize=0;rounded=0;shadow=0;strokeWidth=1;" parent="1" vertex="1">
          <mxGeometry x="151" y="100" width="100" height="300" as="geometry" />
        </mxCell>
        <mxCell id="3nuBFxr9cyL0pnOWT2aG-2" value="" style="points=[];perimeter=orthogonalPerimeter;rounded=0;shadow=0;strokeWidth=1;" parent="3nuBFxr9cyL0pnOWT2aG-1" vertex="1">
          <mxGeometry x="45" y="70" width="10" height="190" as="geometry" />
        </mxCell>
        <mxCell id="3nuBFxr9cyL0pnOWT2aG-3" value="Event&#xa;FS" style="verticalAlign=bottom;startArrow=oval;endArrow=block;startSize=8;shadow=0;strokeWidth=1;" parent="3nuBFxr9cyL0pnOWT2aG-1" target="3nuBFxr9cyL0pnOWT2aG-2" edge="1">
          <mxGeometry relative="1" as="geometry">
            <mxPoint x="-15" y="70" as="sourcePoint" />
          </mxGeometry>
        </mxCell>
        <mxCell id="UEWC-nzJQtsiGo69vwDk-11" value="Evaluation" style="endArrow=classic;html=1;exitX=1.2;exitY=0.105;exitDx=0;exitDy=0;exitPerimeter=0;entryX=1;entryY=0.242;entryDx=0;entryDy=0;entryPerimeter=0;" edge="1" parent="3nuBFxr9cyL0pnOWT2aG-1" source="3nuBFxr9cyL0pnOWT2aG-2" target="3nuBFxr9cyL0pnOWT2aG-2">
          <mxGeometry width="50" height="50" relative="1" as="geometry">
            <mxPoint x="59" y="80" as="sourcePoint" />
            <mxPoint x="109" y="30" as="targetPoint" />
            <Array as="points">
              <mxPoint x="119" y="90" />
              <mxPoint x="119" y="116" />
            </Array>
          </mxGeometry>
        </mxCell>
        <mxCell id="3nuBFxr9cyL0pnOWT2aG-5" value="Nomad" style="shape=umlLifeline;perimeter=lifelinePerimeter;container=1;collapsible=0;recursiveResize=0;rounded=0;shadow=0;strokeWidth=1;" parent="1" vertex="1">
          <mxGeometry x="331" y="100" width="100" height="300" as="geometry" />
        </mxCell>
        <mxCell id="3nuBFxr9cyL0pnOWT2aG-6" value="" style="points=[];perimeter=orthogonalPerimeter;rounded=0;shadow=0;strokeWidth=1;" parent="3nuBFxr9cyL0pnOWT2aG-5" vertex="1">
          <mxGeometry x="45" y="80" width="10" height="160" as="geometry" />
        </mxCell>
        <mxCell id="3nuBFxr9cyL0pnOWT2aG-8" value="Create Job" style="verticalAlign=bottom;endArrow=block;entryX=0;entryY=0;shadow=0;strokeWidth=1;" parent="1" edge="1">
          <mxGeometry relative="1" as="geometry">
            <mxPoint x="206" y="240.0000000000001" as="sourcePoint" />
            <mxPoint x="376" y="240.0000000000001" as="targetPoint" />
          </mxGeometry>
        </mxCell>
        <mxCell id="UEWC-nzJQtsiGo69vwDk-12" value="Creat Event&lt;br&gt;FS" style="edgeStyle=orthogonalEdgeStyle;rounded=0;orthogonalLoop=1;jettySize=auto;html=1;exitX=1.2;exitY=0.75;exitDx=0;exitDy=0;exitPerimeter=0;entryX=-0.1;entryY=0.756;entryDx=0;entryDy=0;entryPerimeter=0;" edge="1" parent="1" source="UEWC-nzJQtsiGo69vwDk-2" target="UEWC-nzJQtsiGo69vwDk-10">
          <mxGeometry relative="1" as="geometry">
            <mxPoint x="569" y="318.96000000000004" as="sourcePoint" />
            <mxPoint x="729.5" y="320.0799999999999" as="targetPoint" />
            <Array as="points" />
          </mxGeometry>
        </mxCell>
        <mxCell id="UEWC-nzJQtsiGo69vwDk-1" value="Analytics" style="shape=umlLifeline;perimeter=lifelinePerimeter;container=1;collapsible=0;recursiveResize=0;rounded=0;shadow=0;strokeWidth=1;" vertex="1" parent="1">
          <mxGeometry x="511" y="100" width="100" height="300" as="geometry" />
        </mxCell>
        <mxCell id="UEWC-nzJQtsiGo69vwDk-2" value="" style="points=[];perimeter=orthogonalPerimeter;rounded=0;shadow=0;strokeWidth=1;" vertex="1" parent="UEWC-nzJQtsiGo69vwDk-1">
          <mxGeometry x="45" y="80" width="10" height="160" as="geometry" />
        </mxCell>
        <mxCell id="UEWC-nzJQtsiGo69vwDk-13" value="PrÃ© Analysis" style="endArrow=classic;html=1;entryX=0.54;entryY=0.623;entryDx=0;entryDy=0;entryPerimeter=0;exitX=1.3;exitY=0.5;exitDx=0;exitDy=0;exitPerimeter=0;" edge="1" parent="UEWC-nzJQtsiGo69vwDk-1" source="UEWC-nzJQtsiGo69vwDk-2" target="UEWC-nzJQtsiGo69vwDk-1">
          <mxGeometry width="50" height="50" relative="1" as="geometry">
            <mxPoint x="59" y="160" as="sourcePoint" />
            <mxPoint x="49" y="186.03000000000003" as="targetPoint" />
            <Array as="points">
              <mxPoint x="113" y="160.05" />
              <mxPoint x="113" y="186.05" />
            </Array>
          </mxGeometry>
        </mxCell>
        <mxCell id="UEWC-nzJQtsiGo69vwDk-3" value="Run Job" style="endArrow=classic;html=1;exitX=1.2;exitY=0.094;exitDx=0;exitDy=0;exitPerimeter=0;entryX=0.1;entryY=0.088;entryDx=0;entryDy=0;entryPerimeter=0;" edge="1" parent="1">
          <mxGeometry width="50" height="50" relative="1" as="geometry">
            <mxPoint x="388" y="255.03999999999996" as="sourcePoint" />
            <mxPoint x="557" y="254.08000000000004" as="targetPoint" />
          </mxGeometry>
        </mxCell>
        <mxCell id="UEWC-nzJQtsiGo69vwDk-9" value="Consumer" style="shape=umlLifeline;perimeter=lifelinePerimeter;container=1;collapsible=0;recursiveResize=0;rounded=0;shadow=0;strokeWidth=1;" vertex="1" parent="1">
          <mxGeometry x="680" y="100" width="100" height="300" as="geometry" />
        </mxCell>
        <mxCell id="UEWC-nzJQtsiGo69vwDk-10" value="" style="points=[];perimeter=orthogonalPerimeter;rounded=0;shadow=0;strokeWidth=1;" vertex="1" parent="UEWC-nzJQtsiGo69vwDk-9">
          <mxGeometry x="45" y="80" width="10" height="160" as="geometry" />
        </mxCell>
        <mxCell id="UEWC-nzJQtsiGo69vwDk-14" value="Summurize" style="endArrow=classic;html=1;entryX=0.54;entryY=0.623;entryDx=0;entryDy=0;entryPerimeter=0;exitX=1.3;exitY=0.5;exitDx=0;exitDy=0;exitPerimeter=0;" edge="1" parent="1">
          <mxGeometry width="50" height="50" relative="1" as="geometry">
            <mxPoint x="734" y="310" as="sourcePoint" />
            <mxPoint x="730" y="336.9000000000001" as="targetPoint" />
            <Array as="points">
              <mxPoint x="789" y="310.05" />
              <mxPoint x="789" y="336.05" />
            </Array>
          </mxGeometry>
        </mxCell>
        <mxCell id="UEWC-nzJQtsiGo69vwDk-15" value="Data Generator&lt;br&gt;" style="shape=umlActor;verticalLabelPosition=bottom;verticalAlign=top;html=1;outlineConnect=0;" vertex="1" parent="1">
          <mxGeometry x="90" y="140" width="30" height="60" as="geometry" />
        </mxCell>
        <mxCell id="UEWC-nzJQtsiGo69vwDk-55" value="Simplify Deployment" style="swimlane;horizontal=0;verticalAlign=top;" vertex="1" parent="1">
          <mxGeometry x="40" y="440" width="760" height="380" as="geometry" />
        </mxCell>
        <mxCell id="UEWC-nzJQtsiGo69vwDk-57" value="" style="group" vertex="1" connectable="0" parent="UEWC-nzJQtsiGo69vwDk-55">
          <mxGeometry x="50" y="30" width="670" height="330" as="geometry" />
        </mxCell>
        <mxCell id="UEWC-nzJQtsiGo69vwDk-27" value="" style="group" vertex="1" connectable="0" parent="UEWC-nzJQtsiGo69vwDk-57">
          <mxGeometry y="210" width="210" height="120" as="geometry" />
        </mxCell>
        <mxCell id="UEWC-nzJQtsiGo69vwDk-21" value="VM - Client 1" style="shape=cube;whiteSpace=wrap;html=1;boundedLbl=1;backgroundOutline=1;darkOpacity=0.05;darkOpacity2=0.1;verticalAlign=top;size=10;" vertex="1" parent="UEWC-nzJQtsiGo69vwDk-27">
          <mxGeometry width="210" height="120" as="geometry" />
        </mxCell>
        <mxCell id="UEWC-nzJQtsiGo69vwDk-17" value="Nomad" style="rounded=1;whiteSpace=wrap;html=1;" vertex="1" parent="UEWC-nzJQtsiGo69vwDk-27">
          <mxGeometry x="20" y="40" width="70" height="30" as="geometry" />
        </mxCell>
        <mxCell id="UEWC-nzJQtsiGo69vwDk-18" value="Consul" style="rounded=1;whiteSpace=wrap;html=1;" vertex="1" parent="UEWC-nzJQtsiGo69vwDk-27">
          <mxGeometry x="20" y="80" width="70" height="30" as="geometry" />
        </mxCell>
        <mxCell id="UEWC-nzJQtsiGo69vwDk-26" style="edgeStyle=orthogonalEdgeStyle;rounded=0;orthogonalLoop=1;jettySize=auto;html=1;" edge="1" parent="UEWC-nzJQtsiGo69vwDk-27" source="UEWC-nzJQtsiGo69vwDk-17" target="UEWC-nzJQtsiGo69vwDk-18">
          <mxGeometry relative="1" as="geometry" />
        </mxCell>
        <mxCell id="UEWC-nzJQtsiGo69vwDk-22" value="Docker" style="swimlane;startSize=0;verticalAlign=top;" vertex="1" parent="UEWC-nzJQtsiGo69vwDk-27">
          <mxGeometry x="101" y="40" width="99" height="70" as="geometry" />
        </mxCell>
        <mxCell id="UEWC-nzJQtsiGo69vwDk-24" value="Containers" style="rounded=1;whiteSpace=wrap;html=1;" vertex="1" parent="UEWC-nzJQtsiGo69vwDk-22">
          <mxGeometry x="14.5" y="30" width="70" height="30" as="geometry" />
        </mxCell>
        <mxCell id="UEWC-nzJQtsiGo69vwDk-25" value="" style="edgeStyle=orthogonalEdgeStyle;rounded=0;orthogonalLoop=1;jettySize=auto;html=1;" edge="1" parent="UEWC-nzJQtsiGo69vwDk-27" source="UEWC-nzJQtsiGo69vwDk-17" target="UEWC-nzJQtsiGo69vwDk-24">
          <mxGeometry relative="1" as="geometry" />
        </mxCell>
        <mxCell id="UEWC-nzJQtsiGo69vwDk-28" value="" style="group" vertex="1" connectable="0" parent="UEWC-nzJQtsiGo69vwDk-57">
          <mxGeometry x="230" y="210" width="210" height="120" as="geometry" />
        </mxCell>
        <mxCell id="UEWC-nzJQtsiGo69vwDk-29" value="VM - Client 2" style="shape=cube;whiteSpace=wrap;html=1;boundedLbl=1;backgroundOutline=1;darkOpacity=0.05;darkOpacity2=0.1;verticalAlign=top;size=10;" vertex="1" parent="UEWC-nzJQtsiGo69vwDk-28">
          <mxGeometry width="210" height="120" as="geometry" />
        </mxCell>
        <mxCell id="UEWC-nzJQtsiGo69vwDk-30" value="Nomad" style="rounded=1;whiteSpace=wrap;html=1;" vertex="1" parent="UEWC-nzJQtsiGo69vwDk-28">
          <mxGeometry x="20" y="40" width="70" height="30" as="geometry" />
        </mxCell>
        <mxCell id="UEWC-nzJQtsiGo69vwDk-31" value="Consul" style="rounded=1;whiteSpace=wrap;html=1;" vertex="1" parent="UEWC-nzJQtsiGo69vwDk-28">
          <mxGeometry x="20" y="80" width="70" height="30" as="geometry" />
        </mxCell>
        <mxCell id="UEWC-nzJQtsiGo69vwDk-32" style="edgeStyle=orthogonalEdgeStyle;rounded=0;orthogonalLoop=1;jettySize=auto;html=1;" edge="1" parent="UEWC-nzJQtsiGo69vwDk-28" source="UEWC-nzJQtsiGo69vwDk-30" target="UEWC-nzJQtsiGo69vwDk-31">
          <mxGeometry relative="1" as="geometry" />
        </mxCell>
        <mxCell id="UEWC-nzJQtsiGo69vwDk-33" value="Docker" style="swimlane;startSize=0;verticalAlign=top;" vertex="1" parent="UEWC-nzJQtsiGo69vwDk-28">
          <mxGeometry x="101" y="40" width="99" height="70" as="geometry" />
        </mxCell>
        <mxCell id="UEWC-nzJQtsiGo69vwDk-34" value="Containers" style="rounded=1;whiteSpace=wrap;html=1;" vertex="1" parent="UEWC-nzJQtsiGo69vwDk-33">
          <mxGeometry x="14.5" y="30" width="70" height="30" as="geometry" />
        </mxCell>
        <mxCell id="UEWC-nzJQtsiGo69vwDk-35" value="" style="edgeStyle=orthogonalEdgeStyle;rounded=0;orthogonalLoop=1;jettySize=auto;html=1;" edge="1" parent="UEWC-nzJQtsiGo69vwDk-28" source="UEWC-nzJQtsiGo69vwDk-30" target="UEWC-nzJQtsiGo69vwDk-34">
          <mxGeometry relative="1" as="geometry" />
        </mxCell>
        <mxCell id="UEWC-nzJQtsiGo69vwDk-36" value="" style="group" vertex="1" connectable="0" parent="UEWC-nzJQtsiGo69vwDk-57">
          <mxGeometry x="460" y="210" width="210" height="120" as="geometry" />
        </mxCell>
        <mxCell id="UEWC-nzJQtsiGo69vwDk-37" value="VM - Client 3" style="shape=cube;whiteSpace=wrap;html=1;boundedLbl=1;backgroundOutline=1;darkOpacity=0.05;darkOpacity2=0.1;verticalAlign=top;size=10;" vertex="1" parent="UEWC-nzJQtsiGo69vwDk-36">
          <mxGeometry width="210" height="120" as="geometry" />
        </mxCell>
        <mxCell id="UEWC-nzJQtsiGo69vwDk-38" value="Nomad" style="rounded=1;whiteSpace=wrap;html=1;" vertex="1" parent="UEWC-nzJQtsiGo69vwDk-36">
          <mxGeometry x="20" y="40" width="70" height="30" as="geometry" />
        </mxCell>
        <mxCell id="UEWC-nzJQtsiGo69vwDk-39" value="Consul" style="rounded=1;whiteSpace=wrap;html=1;" vertex="1" parent="UEWC-nzJQtsiGo69vwDk-36">
          <mxGeometry x="20" y="80" width="70" height="30" as="geometry" />
        </mxCell>
        <mxCell id="UEWC-nzJQtsiGo69vwDk-40" style="edgeStyle=orthogonalEdgeStyle;rounded=0;orthogonalLoop=1;jettySize=auto;html=1;" edge="1" parent="UEWC-nzJQtsiGo69vwDk-36" source="UEWC-nzJQtsiGo69vwDk-38" target="UEWC-nzJQtsiGo69vwDk-39">
          <mxGeometry relative="1" as="geometry" />
        </mxCell>
        <mxCell id="UEWC-nzJQtsiGo69vwDk-41" value="Docker" style="swimlane;startSize=0;verticalAlign=top;" vertex="1" parent="UEWC-nzJQtsiGo69vwDk-36">
          <mxGeometry x="101" y="40" width="99" height="70" as="geometry" />
        </mxCell>
        <mxCell id="UEWC-nzJQtsiGo69vwDk-42" value="Containers" style="rounded=1;whiteSpace=wrap;html=1;" vertex="1" parent="UEWC-nzJQtsiGo69vwDk-41">
          <mxGeometry x="14.5" y="30" width="70" height="30" as="geometry" />
        </mxCell>
        <mxCell id="UEWC-nzJQtsiGo69vwDk-43" value="" style="edgeStyle=orthogonalEdgeStyle;rounded=0;orthogonalLoop=1;jettySize=auto;html=1;" edge="1" parent="UEWC-nzJQtsiGo69vwDk-36" source="UEWC-nzJQtsiGo69vwDk-38" target="UEWC-nzJQtsiGo69vwDk-42">
          <mxGeometry relative="1" as="geometry" />
        </mxCell>
        <mxCell id="UEWC-nzJQtsiGo69vwDk-44" value="" style="group" vertex="1" connectable="0" parent="UEWC-nzJQtsiGo69vwDk-57">
          <mxGeometry x="230" width="210" height="120" as="geometry" />
        </mxCell>
        <mxCell id="UEWC-nzJQtsiGo69vwDk-45" value="VM - Server 1" style="shape=cube;whiteSpace=wrap;html=1;boundedLbl=1;backgroundOutline=1;darkOpacity=0.05;darkOpacity2=0.1;verticalAlign=top;size=10;" vertex="1" parent="UEWC-nzJQtsiGo69vwDk-44">
          <mxGeometry width="210" height="120" as="geometry" />
        </mxCell>
        <mxCell id="UEWC-nzJQtsiGo69vwDk-46" value="Nomad" style="rounded=1;whiteSpace=wrap;html=1;" vertex="1" parent="UEWC-nzJQtsiGo69vwDk-44">
          <mxGeometry x="130" y="60" width="70" height="30" as="geometry" />
        </mxCell>
        <mxCell id="UEWC-nzJQtsiGo69vwDk-47" value="Consul" style="rounded=1;whiteSpace=wrap;html=1;" vertex="1" parent="UEWC-nzJQtsiGo69vwDk-44">
          <mxGeometry x="20" y="60" width="70" height="30" as="geometry" />
        </mxCell>
        <mxCell id="UEWC-nzJQtsiGo69vwDk-48" style="edgeStyle=orthogonalEdgeStyle;rounded=0;orthogonalLoop=1;jettySize=auto;html=1;" edge="1" parent="UEWC-nzJQtsiGo69vwDk-44" source="UEWC-nzJQtsiGo69vwDk-46" target="UEWC-nzJQtsiGo69vwDk-47">
          <mxGeometry relative="1" as="geometry" />
        </mxCell>
        <mxCell id="UEWC-nzJQtsiGo69vwDk-52" style="edgeStyle=orthogonalEdgeStyle;rounded=0;orthogonalLoop=1;jettySize=auto;html=1;entryX=0.419;entryY=0;entryDx=0;entryDy=0;entryPerimeter=0;" edge="1" parent="UEWC-nzJQtsiGo69vwDk-57" source="UEWC-nzJQtsiGo69vwDk-45" target="UEWC-nzJQtsiGo69vwDk-21">
          <mxGeometry relative="1" as="geometry">
            <Array as="points">
              <mxPoint x="335" y="150" />
              <mxPoint x="88" y="150" />
            </Array>
          </mxGeometry>
        </mxCell>
        <mxCell id="UEWC-nzJQtsiGo69vwDk-53" style="edgeStyle=orthogonalEdgeStyle;rounded=0;orthogonalLoop=1;jettySize=auto;html=1;entryX=0;entryY=0;entryDx=100;entryDy=0;entryPerimeter=0;" edge="1" parent="UEWC-nzJQtsiGo69vwDk-57" source="UEWC-nzJQtsiGo69vwDk-45" target="UEWC-nzJQtsiGo69vwDk-29">
          <mxGeometry relative="1" as="geometry">
            <Array as="points">
              <mxPoint x="335" y="210" />
            </Array>
          </mxGeometry>
        </mxCell>
        <mxCell id="UEWC-nzJQtsiGo69vwDk-54" style="edgeStyle=orthogonalEdgeStyle;rounded=0;orthogonalLoop=1;jettySize=auto;html=1;entryX=0;entryY=0;entryDx=100;entryDy=0;entryPerimeter=0;" edge="1" parent="UEWC-nzJQtsiGo69vwDk-57" source="UEWC-nzJQtsiGo69vwDk-45" target="UEWC-nzJQtsiGo69vwDk-37">
          <mxGeometry relative="1" as="geometry">
            <Array as="points">
              <mxPoint x="335" y="150" />
              <mxPoint x="560" y="150" />
            </Array>
          </mxGeometry>
        </mxCell>
        <mxCell id="UEWC-nzJQtsiGo69vwDk-58" value="Consul Server" style="whiteSpace=wrap;html=1;aspect=fixed;verticalAlign=top;" vertex="1" parent="UEWC-nzJQtsiGo69vwDk-57">
          <mxGeometry x="65" y="20" width="80" height="80" as="geometry" />
        </mxCell>
        <mxCell id="UEWC-nzJQtsiGo69vwDk-59" value="Consul" style="rounded=1;whiteSpace=wrap;html=1;" vertex="1" parent="UEWC-nzJQtsiGo69vwDk-57">
          <mxGeometry x="70" y="60" width="70" height="30" as="geometry" />
        </mxCell>
        <mxCell id="UEWC-nzJQtsiGo69vwDk-60" value="" style="edgeStyle=orthogonalEdgeStyle;rounded=0;orthogonalLoop=1;jettySize=auto;html=1;" edge="1" parent="UEWC-nzJQtsiGo69vwDk-57" source="UEWC-nzJQtsiGo69vwDk-45" target="UEWC-nzJQtsiGo69vwDk-59">
          <mxGeometry relative="1" as="geometry" />
        </mxCell>
        <mxCell id="UEWC-nzJQtsiGo69vwDk-56" value="Detailed Client Deployment" style="swimlane;horizontal=0;verticalAlign=top;" vertex="1" parent="1">
          <mxGeometry x="40" y="820" width="760" height="330" as="geometry" />
        </mxCell>
        <mxCell id="UEWC-nzJQtsiGo69vwDk-61" value="Job Monitoring" style="swimlane;verticalAlign=top;" vertex="1" parent="UEWC-nzJQtsiGo69vwDk-56">
          <mxGeometry x="70" y="30" width="140" height="130" as="geometry" />
        </mxCell>
        <mxCell id="UEWC-nzJQtsiGo69vwDk-62" value="" style="strokeWidth=1;shadow=0;dashed=0;align=center;html=1;shape=mxgraph.mockup.containers.rrect;rSize=0;strokeColor=#666666;" vertex="1" parent="UEWC-nzJQtsiGo69vwDk-61">
          <mxGeometry x="16" y="36.25" width="100" height="75" as="geometry" />
        </mxCell>
        <mxCell id="UEWC-nzJQtsiGo69vwDk-63" value="Prometheus" style="strokeColor=inherit;fillColor=inherit;gradientColor=inherit;strokeWidth=1;shadow=0;dashed=0;align=center;html=1;shape=mxgraph.mockup.containers.rrect;rSize=0;fontSize=17;fontColor=#666666;fontStyle=1;resizeWidth=1;" vertex="1" parent="UEWC-nzJQtsiGo69vwDk-62">
          <mxGeometry width="100" height="26" relative="1" as="geometry" />
        </mxCell>
        <mxCell id="UEWC-nzJQtsiGo69vwDk-64" value="Grafana" style="strokeColor=inherit;fillColor=inherit;gradientColor=inherit;strokeWidth=1;shadow=0;dashed=0;align=center;html=1;shape=mxgraph.mockup.containers.rrect;rSize=0;fontSize=17;fontColor=#666666;fontStyle=1;resizeWidth=1;" vertex="1" parent="UEWC-nzJQtsiGo69vwDk-62">
          <mxGeometry width="100" height="26" relative="1" as="geometry">
            <mxPoint y="26" as="offset" />
          </mxGeometry>
        </mxCell>
        <mxCell id="UEWC-nzJQtsiGo69vwDk-65" value="AlertMang" style="strokeWidth=1;shadow=0;dashed=0;align=center;html=1;shape=mxgraph.mockup.containers.rrect;rSize=0;fontSize=17;fontColor=#ffffff;fontStyle=1;fillColor=#008cff;strokeColor=#008cff;resizeWidth=1;" vertex="1" parent="UEWC-nzJQtsiGo69vwDk-62">
          <mxGeometry width="100" height="26" relative="1" as="geometry">
            <mxPoint y="52" as="offset" />
          </mxGeometry>
        </mxCell>
        <mxCell id="UEWC-nzJQtsiGo69vwDk-67" value="Job Administer" style="swimlane;verticalAlign=top;" vertex="1" parent="UEWC-nzJQtsiGo69vwDk-56">
          <mxGeometry x="290" y="30" width="140" height="120" as="geometry" />
        </mxCell>
        <mxCell id="UEWC-nzJQtsiGo69vwDk-68" value="" style="strokeWidth=1;shadow=0;dashed=0;align=center;html=1;shape=mxgraph.mockup.containers.rrect;rSize=0;strokeColor=#666666;" vertex="1" parent="UEWC-nzJQtsiGo69vwDk-67">
          <mxGeometry x="20" y="45" width="100" height="57.5" as="geometry" />
        </mxCell>
        <mxCell id="UEWC-nzJQtsiGo69vwDk-69" value="Producer" style="strokeColor=inherit;fillColor=inherit;gradientColor=inherit;strokeWidth=1;shadow=0;dashed=0;align=center;html=1;shape=mxgraph.mockup.containers.rrect;rSize=0;fontSize=17;fontColor=#666666;fontStyle=1;resizeWidth=1;" vertex="1" parent="UEWC-nzJQtsiGo69vwDk-68">
          <mxGeometry width="100" height="26" relative="1" as="geometry" />
        </mxCell>
        <mxCell id="UEWC-nzJQtsiGo69vwDk-71" value="Consumer" style="strokeWidth=1;shadow=0;dashed=0;align=center;html=1;shape=mxgraph.mockup.containers.rrect;rSize=0;fontSize=17;fontColor=#ffffff;fontStyle=1;fillColor=#008cff;strokeColor=#008cff;resizeWidth=1;" vertex="1" parent="UEWC-nzJQtsiGo69vwDk-68">
          <mxGeometry width="100" height="26" relative="1" as="geometry">
            <mxPoint y="29" as="offset" />
          </mxGeometry>
        </mxCell>
        <mxCell id="UEWC-nzJQtsiGo69vwDk-76" value="" style="edgeStyle=orthogonalEdgeStyle;rounded=0;orthogonalLoop=1;jettySize=auto;html=1;" edge="1" parent="UEWC-nzJQtsiGo69vwDk-56" source="UEWC-nzJQtsiGo69vwDk-72">
          <mxGeometry relative="1" as="geometry">
            <mxPoint x="136" y="160" as="targetPoint" />
          </mxGeometry>
        </mxCell>
        <mxCell id="UEWC-nzJQtsiGo69vwDk-72" value="Job Load Balancer" style="swimlane;verticalAlign=top;" vertex="1" parent="UEWC-nzJQtsiGo69vwDk-56">
          <mxGeometry x="70" y="190" width="140" height="120" as="geometry" />
        </mxCell>
        <mxCell id="UEWC-nzJQtsiGo69vwDk-73" value="" style="strokeWidth=1;shadow=0;dashed=0;align=center;html=1;shape=mxgraph.mockup.containers.rrect;rSize=0;strokeColor=#666666;" vertex="1" parent="UEWC-nzJQtsiGo69vwDk-72">
          <mxGeometry x="20" y="45" width="100" height="57.5" as="geometry" />
        </mxCell>
        <mxCell id="UEWC-nzJQtsiGo69vwDk-74" value="Producer" style="strokeColor=inherit;fillColor=inherit;gradientColor=inherit;strokeWidth=1;shadow=0;dashed=0;align=center;html=1;shape=mxgraph.mockup.containers.rrect;rSize=0;fontSize=17;fontColor=#666666;fontStyle=1;resizeWidth=1;" vertex="1" parent="UEWC-nzJQtsiGo69vwDk-73">
          <mxGeometry width="100" height="26" relative="1" as="geometry" />
        </mxCell>
        <mxCell id="UEWC-nzJQtsiGo69vwDk-75" value="Consumer" style="strokeWidth=1;shadow=0;dashed=0;align=center;html=1;shape=mxgraph.mockup.containers.rrect;rSize=0;fontSize=17;fontColor=#ffffff;fontStyle=1;fillColor=#008cff;strokeColor=#008cff;resizeWidth=1;" vertex="1" parent="UEWC-nzJQtsiGo69vwDk-73">
          <mxGeometry width="100" height="26" relative="1" as="geometry">
            <mxPoint y="29" as="offset" />
          </mxGeometry>
        </mxCell>
        <mxCell id="UEWC-nzJQtsiGo69vwDk-77" value="Container" style="swimlane;verticalAlign=top;" vertex="1" parent="UEWC-nzJQtsiGo69vwDk-56">
          <mxGeometry x="520" y="30" width="200" height="90" as="geometry" />
        </mxCell>
        <mxCell id="UEWC-nzJQtsiGo69vwDk-78" value="&lt;b&gt;&lt;font style=&quot;font-size: 19px&quot;&gt;Analisys&lt;/font&gt;&lt;/b&gt;" style="shape=process;whiteSpace=wrap;html=1;backgroundOutline=1;verticalAlign=top;fontColor=#696969;" vertex="1" parent="UEWC-nzJQtsiGo69vwDk-77">
          <mxGeometry x="40" y="35" width="120" height="35" as="geometry" />
        </mxCell>
        <mxCell id="UEWC-nzJQtsiGo69vwDk-81" value="Event Folder" style="edgeStyle=orthogonalEdgeStyle;rounded=0;orthogonalLoop=1;jettySize=auto;html=1;entryX=0.51;entryY=1.115;entryDx=0;entryDy=0;entryPerimeter=0;fontColor=#696969;startArrow=none;" edge="1" parent="UEWC-nzJQtsiGo69vwDk-56" source="UEWC-nzJQtsiGo69vwDk-84" target="UEWC-nzJQtsiGo69vwDk-71">
          <mxGeometry x="-1" y="34" relative="1" as="geometry">
            <Array as="points" />
            <mxPoint x="17" y="-4" as="offset" />
          </mxGeometry>
        </mxCell>
        <mxCell id="UEWC-nzJQtsiGo69vwDk-83" value="Indirect Job Creation" style="edgeStyle=orthogonalEdgeStyle;rounded=0;orthogonalLoop=1;jettySize=auto;html=1;fontColor=#696969;" edge="1" parent="UEWC-nzJQtsiGo69vwDk-56" source="UEWC-nzJQtsiGo69vwDk-69" target="UEWC-nzJQtsiGo69vwDk-78">
          <mxGeometry relative="1" as="geometry" />
        </mxCell>
        <mxCell id="UEWC-nzJQtsiGo69vwDk-84" value="" style="shape=note;whiteSpace=wrap;html=1;backgroundOutline=1;darkOpacity=0.05;fontColor=#696969;verticalAlign=top;size=16;" vertex="1" parent="UEWC-nzJQtsiGo69vwDk-56">
          <mxGeometry x="456" y="150" width="34" height="40" as="geometry" />
        </mxCell>
        <mxCell id="UEWC-nzJQtsiGo69vwDk-85" value="" style="edgeStyle=orthogonalEdgeStyle;rounded=0;orthogonalLoop=1;jettySize=auto;html=1;entryX=0;entryY=0;entryDx=34;entryDy=28;entryPerimeter=0;fontColor=#696969;endArrow=none;" edge="1" parent="UEWC-nzJQtsiGo69vwDk-56" source="UEWC-nzJQtsiGo69vwDk-78" target="UEWC-nzJQtsiGo69vwDk-84">
          <mxGeometry relative="1" as="geometry">
            <mxPoint x="660" y="920" as="sourcePoint" />
            <mxPoint x="401" y="952.99" as="targetPoint" />
            <Array as="points">
              <mxPoint x="660" y="170" />
              <mxPoint x="490" y="170" />
            </Array>
          </mxGeometry>
        </mxCell>
        <mxCell id="UEWC-nzJQtsiGo69vwDk-86" value="Flow Data and Process" style="swimlane;horizontal=0;verticalAlign=top;" vertex="1" parent="1">
          <mxGeometry x="40" y="1150" width="792.5" height="420" as="geometry" />
        </mxCell>
        <mxCell id="UEWC-nzJQtsiGo69vwDk-116" value="" style="edgeStyle=orthogonalEdgeStyle;rounded=0;orthogonalLoop=1;jettySize=auto;html=1;fontColor=#696969;" edge="1" parent="UEWC-nzJQtsiGo69vwDk-86" source="UEWC-nzJQtsiGo69vwDk-107" target="UEWC-nzJQtsiGo69vwDk-114">
          <mxGeometry relative="1" as="geometry" />
        </mxCell>
        <mxCell id="UEWC-nzJQtsiGo69vwDk-107" value="Actor" style="shape=umlActor;verticalLabelPosition=bottom;verticalAlign=top;html=1;outlineConnect=0;fontColor=#696969;" vertex="1" parent="UEWC-nzJQtsiGo69vwDk-86">
          <mxGeometry x="40" y="42.5" width="30" height="60" as="geometry" />
        </mxCell>
        <mxCell id="UEWC-nzJQtsiGo69vwDk-112" style="edgeStyle=orthogonalEdgeStyle;rounded=0;orthogonalLoop=1;jettySize=auto;html=1;fontColor=#696969;startArrow=none;" edge="1" parent="UEWC-nzJQtsiGo69vwDk-86" source="UEWC-nzJQtsiGo69vwDk-114" target="UEWC-nzJQtsiGo69vwDk-111">
          <mxGeometry relative="1" as="geometry">
            <mxPoint x="170" y="80" as="sourcePoint" />
          </mxGeometry>
        </mxCell>
        <mxCell id="UEWC-nzJQtsiGo69vwDk-117" value="" style="edgeStyle=orthogonalEdgeStyle;rounded=0;orthogonalLoop=1;jettySize=auto;html=1;fontColor=#696969;" edge="1" parent="UEWC-nzJQtsiGo69vwDk-86" source="UEWC-nzJQtsiGo69vwDk-111" target="UEWC-nzJQtsiGo69vwDk-113">
          <mxGeometry relative="1" as="geometry">
            <Array as="points">
              <mxPoint x="390" y="140" />
              <mxPoint x="120" y="140" />
            </Array>
          </mxGeometry>
        </mxCell>
        <mxCell id="UEWC-nzJQtsiGo69vwDk-111" value="Folder Input" style="pointerEvents=1;shadow=0;dashed=0;html=1;strokeColor=none;fillColor=#434445;aspect=fixed;labelPosition=center;verticalLabelPosition=bottom;verticalAlign=top;align=center;outlineConnect=0;shape=mxgraph.vvd.folder;fontColor=#696969;" vertex="1" parent="UEWC-nzJQtsiGo69vwDk-86">
          <mxGeometry x="364.02" y="48" width="64.47" height="49" as="geometry" />
        </mxCell>
        <mxCell id="UEWC-nzJQtsiGo69vwDk-114" value="Data" style="strokeWidth=2;html=1;shape=mxgraph.flowchart.multi-document;whiteSpace=wrap;fontColor=#696969;verticalAlign=middle;" vertex="1" parent="UEWC-nzJQtsiGo69vwDk-86">
          <mxGeometry x="210" y="50" width="70" height="45" as="geometry" />
        </mxCell>
        <mxCell id="UEWC-nzJQtsiGo69vwDk-119" value="Create" style="edgeStyle=orthogonalEdgeStyle;rounded=0;orthogonalLoop=1;jettySize=auto;html=1;fontColor=#696969;" edge="1" parent="UEWC-nzJQtsiGo69vwDk-86" source="UEWC-nzJQtsiGo69vwDk-113" target="UEWC-nzJQtsiGo69vwDk-118">
          <mxGeometry relative="1" as="geometry" />
        </mxCell>
        <mxCell id="UEWC-nzJQtsiGo69vwDk-113" value="Producer" style="verticalLabelPosition=bottom;verticalAlign=top;html=1;shape=process;whiteSpace=wrap;rounded=1;size=0.14;arcSize=6;fontColor=#696969;" vertex="1" parent="UEWC-nzJQtsiGo69vwDk-86">
          <mxGeometry x="70" y="170" width="100" height="60" as="geometry" />
        </mxCell>
        <mxCell id="UEWC-nzJQtsiGo69vwDk-127" value="" style="edgeStyle=orthogonalEdgeStyle;rounded=0;orthogonalLoop=1;jettySize=auto;html=1;fontColor=#696969;" edge="1" parent="UEWC-nzJQtsiGo69vwDk-86" source="UEWC-nzJQtsiGo69vwDk-118" target="UEWC-nzJQtsiGo69vwDk-126">
          <mxGeometry relative="1" as="geometry" />
        </mxCell>
        <mxCell id="UEWC-nzJQtsiGo69vwDk-118" value="Analyzis" style="verticalLabelPosition=bottom;verticalAlign=top;html=1;shape=mxgraph.flowchart.parallel_mode;pointerEvents=1;fontColor=#696969;" vertex="1" parent="UEWC-nzJQtsiGo69vwDk-86">
          <mxGeometry x="377.47" y="180" width="95" height="40" as="geometry" />
        </mxCell>
        <mxCell id="UEWC-nzJQtsiGo69vwDk-125" value="Folder Mid" style="pointerEvents=1;shadow=0;dashed=0;html=1;strokeColor=none;fillColor=#434445;aspect=fixed;labelPosition=center;verticalLabelPosition=bottom;verticalAlign=top;align=center;outlineConnect=0;shape=mxgraph.vvd.folder;fontColor=#696969;" vertex="1" parent="UEWC-nzJQtsiGo69vwDk-86">
          <mxGeometry x="652" y="175.5" width="64.47" height="49" as="geometry" />
        </mxCell>
        <mxCell id="UEWC-nzJQtsiGo69vwDk-126" value="Infos" style="strokeWidth=2;html=1;shape=mxgraph.flowchart.multi-document;whiteSpace=wrap;fontColor=#696969;verticalAlign=middle;" vertex="1" parent="UEWC-nzJQtsiGo69vwDk-86">
          <mxGeometry x="530" y="177.5" width="70" height="45" as="geometry" />
        </mxCell>
        <mxCell id="UEWC-nzJQtsiGo69vwDk-124" style="edgeStyle=orthogonalEdgeStyle;rounded=0;orthogonalLoop=1;jettySize=auto;html=1;fontColor=#696969;startArrow=none;" edge="1" parent="UEWC-nzJQtsiGo69vwDk-86" source="UEWC-nzJQtsiGo69vwDk-126" target="UEWC-nzJQtsiGo69vwDk-125">
          <mxGeometry relative="1" as="geometry">
            <mxPoint x="540" y="-942.5" as="sourcePoint" />
          </mxGeometry>
        </mxCell>
        <mxCell id="UEWC-nzJQtsiGo69vwDk-129" value="Folder Out" style="pointerEvents=1;shadow=0;dashed=0;html=1;strokeColor=none;fillColor=#434445;aspect=fixed;labelPosition=center;verticalLabelPosition=bottom;verticalAlign=top;align=center;outlineConnect=0;shape=mxgraph.vvd.folder;fontColor=#696969;" vertex="1" parent="UEWC-nzJQtsiGo69vwDk-86">
          <mxGeometry x="460" y="324.5" width="64.47" height="49" as="geometry" />
        </mxCell>
        <mxCell id="UEWC-nzJQtsiGo69vwDk-133" value="" style="edgeStyle=orthogonalEdgeStyle;rounded=0;orthogonalLoop=1;jettySize=auto;html=1;fontColor=#696969;" edge="1" parent="UEWC-nzJQtsiGo69vwDk-86" source="UEWC-nzJQtsiGo69vwDk-132" target="UEWC-nzJQtsiGo69vwDk-129">
          <mxGeometry relative="1" as="geometry" />
        </mxCell>
        <mxCell id="UEWC-nzJQtsiGo69vwDk-132" value="Summirized" style="strokeWidth=2;html=1;shape=mxgraph.flowchart.document2;whiteSpace=wrap;size=0.25;fontColor=#696969;verticalAlign=middle;" vertex="1" parent="UEWC-nzJQtsiGo69vwDk-86">
          <mxGeometry x="270" y="323.5" width="75.53" height="51" as="geometry" />
        </mxCell>
        <mxCell id="UEWC-nzJQtsiGo69vwDk-134" style="edgeStyle=orthogonalEdgeStyle;rounded=0;orthogonalLoop=1;jettySize=auto;html=1;fontColor=#696969;" edge="1" parent="1" source="UEWC-nzJQtsiGo69vwDk-123" target="UEWC-nzJQtsiGo69vwDk-132">
          <mxGeometry relative="1" as="geometry" />
        </mxCell>
        <mxCell id="UEWC-nzJQtsiGo69vwDk-123" value="Summary" style="verticalLabelPosition=bottom;verticalAlign=top;html=1;shape=process;whiteSpace=wrap;rounded=1;size=0.14;arcSize=6;fontColor=#696969;" vertex="1" parent="1">
          <mxGeometry x="110" y="1469" width="100" height="60" as="geometry" />
        </mxCell>
        <mxCell id="UEWC-nzJQtsiGo69vwDk-128" style="edgeStyle=orthogonalEdgeStyle;rounded=0;orthogonalLoop=1;jettySize=auto;html=1;fontColor=#696969;" edge="1" parent="1" source="UEWC-nzJQtsiGo69vwDk-125" target="UEWC-nzJQtsiGo69vwDk-123">
          <mxGeometry relative="1" as="geometry">
            <Array as="points">
              <mxPoint x="724" y="1440" />
              <mxPoint x="160" y="1440" />
            </Array>
          </mxGeometry>
        </mxCell>
        <mxCell id="UEWC-nzJQtsiGo69vwDk-135" value="Sequence" style="swimlane;horizontal=0;verticalAlign=top;" vertex="1" parent="1">
          <mxGeometry x="40" y="60" width="760" height="380" as="geometry" />
        </mxCell>
      </root>
    </mxGraphModel>
  </diagram>
</mxfile>
